HIERARCHY
ROOT root
{
	OFFSET	0	13.1	24.9
	CHANNELS 6  Xposition Yposition Zposition Xrotation Yrotation Zrotation
	JOINT spine_1
	{
		OFFSET	0	9.99999	0
		CHANNELS 3  Xrotation Yrotation Zrotation
		JOINT spine_2
		{
			OFFSET	0	112	-10
			CHANNELS 3  Xrotation Yrotation Zrotation
			JOINT spine_3
			{
				OFFSET	0	206.5	19.3
				CHANNELS 3  Xrotation Yrotation Zrotation
				JOINT spine_4
				{
					OFFSET	0	110.4	14.6
					CHANNELS 3  Xrotation Yrotation Zrotation
					JOINT neck_1
					{
						OFFSET	0	71.8	-50.3
						CHANNELS 3  Xrotation Yrotation Zrotation
						JOINT neck_2
						{
							OFFSET	0	86.2	-25.8
							CHANNELS 3  Xrotation Yrotation Zrotation
							JOINT head_ee
							{
								OFFSET	0	179.8	-8.7
								CHANNELS 3  Xrotation Yrotation Zrotation
								End Site
								{
									OFFSET	1	0	0
								}
							}
						}
					}
					JOINT left_clavicle
					{
						OFFSET	-43.2	22.4	-70.8
						CHANNELS 3  Xrotation Yrotation Zrotation
						JOINT left_shoulder
						{
							OFFSET	-93.9	-5.79999	48.7
							CHANNELS 3  Xrotation Yrotation Zrotation
							JOINT left_elbow
							{
								OFFSET	-291.4	-30.8	15.2
								CHANNELS 3  Xrotation Yrotation Zrotation
								JOINT left_lowarm_twist
								{
									OFFSET	-110.7	-3.89999	13.6
									CHANNELS 3  Xrotation Yrotation Zrotation
									JOINT left_hand
									{
										OFFSET	-110.7	-3.89999	13.6
										CHANNELS 3  Xrotation Yrotation Zrotation
										JOINT left_ee
										{
											OFFSET	-80.8	-5.10001	12.1
											CHANNELS 3  Xrotation Yrotation Zrotation
											End Site
											{
												OFFSET	1	0	0
											}
										}
									}
								}
							}
						}
					}
					JOINT right_clavicle
					{
						OFFSET	43.2	22.4	-70.8
						CHANNELS 3  Xrotation Yrotation Zrotation
						JOINT right_shoulder
						{
							OFFSET	93.9	-5.79999	48.7
							CHANNELS 3  Xrotation Yrotation Zrotation
							JOINT right_elbow
							{
								OFFSET	291.4	-30.8	15.2
								CHANNELS 3  Xrotation Yrotation Zrotation
								JOINT right_lowarm_twist
								{
									OFFSET	110.7	-3.89999	13.6
									CHANNELS 3  Xrotation Yrotation Zrotation
									JOINT right_hand
									{
										OFFSET	110.7	-3.89999	13.6
										CHANNELS 3  Xrotation Yrotation Zrotation
										JOINT right_ee
										{
											OFFSET	80.8	-5.10001	12.1
											CHANNELS 3  Xrotation Yrotation Zrotation
											End Site
											{
												OFFSET	1	0	0
											}
										}
									}
								}
							}
						}
					}
				}
			}
		}
	}
	JOINT left_hip
	{
		OFFSET	-82.8	-127.5	0.300001
		CHANNELS 3  Xrotation Yrotation Zrotation
		JOINT left_knee
		{
			OFFSET	-28.2	-396.7	2.2
			CHANNELS 3  Xrotation Yrotation Zrotation
			JOINT left_ankle
			{
				OFFSET	-11.7	-411.3	35.4
				CHANNELS 3  Xrotation Yrotation Zrotation
				JOINT left_toes
				{
					OFFSET	0	-60	-88.6
					CHANNELS 3  Xrotation Yrotation Zrotation
					JOINT left_foot_ee
					{
						OFFSET	-22.5	-16.5	-42.2
						CHANNELS 3  Xrotation Yrotation Zrotation
						End Site
						{
							OFFSET	1	0	0
						}
					}
				}
			}
		}
	}
	JOINT right_hip
	{
		OFFSET	82.8	-127.5	0.300001
		CHANNELS 3  Xrotation Yrotation Zrotation
		JOINT right_knee
		{
			OFFSET	28.2	-396.7	2.2
			CHANNELS 3  Xrotation Yrotation Zrotation
			JOINT right_ankle
			{
				OFFSET	11.7	-411.3	35.4
				CHANNELS 3  Xrotation Yrotation Zrotation
				JOINT right_toes
				{
					OFFSET	0	-60	-88.6
					CHANNELS 3  Xrotation Yrotation Zrotation
					JOINT right_foot_ee
					{
						OFFSET	22.5	-16.5	-42.2
						CHANNELS 3  Xrotation Yrotation Zrotation
						End Site
						{
							OFFSET	1	0	0
						}
					}
				}
			}
		}
	}
}
MOTION
Frames: 9
Frame Time: 0.02
391.555 721.904 -1204.45 179.958103505 -37.9151709653 -174.34715961 -2.53503 -0.43392 -2.55722 -2.53143 -0.270374 -2.57962 -2.51478 0.390893 -2.56414 -2.52396 -0.018829 -2.59368 8.16165 14.5239 3.28883 8.77388 21.323 4.08338 -0.0 0.0 -0.0 7.20253 18.6679 13.1807 -5.65178 -28.6753 71.7309 1.01272 -26.641 0.239784 9.84491 0.241458 -1.23287 1.71517 2.12244 12.3778 -0.0 0.0 -0.0 1.94456 23.0375 -1.54076 -6.06283 28.2488 -63.758 0.899555 24.0181 -0.191358 5.48881 -0.160797 0.682406 -1.23262 -3.38179 6.74163 0.0 0.0 0.0 1.96951 19.0237 1.93426 -0.316456 0.0129012 0.0468497 23.699 12.6793 -3.19535 -2.17951 0.0 0.0 -0.0 0.0 -0.0 7.371 10.5858 -0.312248 -0.28967 -0.0118195 -0.0428815 -5.10405 2.61332 -0.76969 32.4442 -0.0 -0.0 0.0 0.0 0.0 
422.895602179 713.894 -1188.97886701 -179.730537218 -36.1895545143 -175.241685539 -1.81259 -0.399612 -2.46782 -1.80923 -0.241818 -2.48823 -1.79526 0.364362 -2.47327 -1.80379 -0.0306911 -2.49976 8.29684 16.525 6.29704 8.92427 21.9162 7.68207 -0.0 0.0 -0.0 7.45435 18.0244 13.6349 -11.3933 -31.6483 67.9461 0.870225 -23.3199 0.179584 13.6074 0.277292 -1.71203 1.8814 1.67669 13.3373 -0.0 0.0 -0.0 2.60339 23.114 -2.95828 -5.00152 25.5573 -65.0782 0.886938 23.7186 -0.186253 5.0318 -0.149913 0.625041 -1.21847 -4.52697 6.13221 0.0 0.0 0.0 1.97732 17.9061 2.8169 -7.26094 0.230145 1.08983 36.2565 4.93949 -4.51897 -7.66102 0.0 0.0 -0.0 0.0 -0.0 6.9124 10.3313 0.789354 -1.61597 -0.063156 -0.239944 -0.859783 0.594474 -0.127662 34.3108 -0.0 -0.0 0.0 0.0 0.0 
422.83692746 713.894 -1188.86057039 -179.731278064 -35.9730888472 -175.242943484 -1.81259 -0.399612 -2.46782 -1.80923 -0.241818 -2.48823 -1.79526 0.364362 -2.47327 -1.80379 -0.0306911 -2.49976 8.29684 16.525 6.29704 8.92427 21.9162 7.68207 -0.0 0.0 -0.0 7.45435 18.0244 13.6349 -11.3933 -31.6483 67.9461 0.870225 -23.3199 0.179584 13.6074 0.277292 -1.71203 1.8814 1.67669 13.3373 -0.0 0.0 -0.0 2.60339 23.114 -2.95828 -5.00152 25.5573 -65.0782 0.886938 23.7186 -0.186253 5.0318 -0.149913 0.625041 -1.21847 -4.52697 6.13221 0.0 0.0 0.0 1.97732 17.9061 2.8169 -7.26094 0.230145 1.08983 36.2565 4.93949 -4.51897 -7.66102 0.0 0.0 -0.0 0.0 -0.0 6.9124 10.3313 0.789354 -1.61597 -0.063156 -0.239944 -0.859783 0.594474 -0.127662 34.3108 -0.0 -0.0 0.0 0.0 0.0 
422.419135046 713.894 -1188.04894915 -179.736188661 -34.4766359998 -175.251456469 -1.81259 -0.399612 -2.46782 -1.80923 -0.241818 -2.48823 -1.79526 0.364362 -2.47327 -1.80379 -0.0306911 -2.49976 8.29684 16.525 6.29704 8.92427 21.9162 7.68207 -0.0 0.0 -0.0 7.45435 18.0244 13.6349 -11.3933 -31.6483 67.9461 0.870225 -23.3199 0.179584 13.6074 0.277292 -1.71203 1.8814 1.67669 13.3373 -0.0 0.0 -0.0 2.60339 23.114 -2.95828 -5.00152 25.5573 -65.0782 0.886938 23.7186 -0.186253 5.0318 -0.149913 0.625041 -1.21847 -4.52697 6.13221 0.0 0.0 0.0 1.97732 17.9061 2.8169 -7.26094 0.230145 1.08983 36.2565 4.93949 -4.51897 -7.66102 0.0 0.0 -0.0 0.0 -0.0 6.9124 10.3313 0.789354 -1.61597 -0.063156 -0.239944 -0.859783 0.594474 -0.127662 34.3108 -0.0 -0.0 0.0 0.0 0.0 
422.253094548 713.894 -1187.74023363 -179.737979959 -33.9020056717 -175.254644194 -1.81259 -0.399612 -2.46782 -1.80923 -0.241818 -2.48823 -1.79526 0.364362 -2.47327 -1.80379 -0.0306911 -2.49976 8.29684 16.525 6.29704 8.92427 21.9162 7.68207 -0.0 0.0 -0.0 7.45435 18.0244 13.6349 -11.3933 -31.6483 67.9461 0.870225 -23.3199 0.179584 13.6074 0.277292 -1.71203 1.8814 1.67669 13.3373 -0.0 0.0 -0.0 2.60339 23.114 -2.95828 -5.00152 25.5573 -65.0782 0.886938 23.7186 -0.186253 5.0318 -0.149913 0.625041 -1.21847 -4.52697 6.13221 0.0 0.0 0.0 1.97732 17.9061 2.8169 -7.26094 0.230145 1.08983 36.2565 4.93949 -4.51897 -7.66102 0.0 0.0 -0.0 0.0 -0.0 6.9124 10.3313 0.789354 -1.61597 -0.063156 -0.239944 -0.859783 0.594474 -0.127662 34.3108 -0.0 -0.0 0.0 0.0 0.0 
422.748186439 713.894 -1188.68375692 -179.732373276 -35.6487828278 -175.244815273 -1.81259 -0.399612 -2.46782 -1.80923 -0.241818 -2.48823 -1.79526 0.364362 -2.47327 -1.80379 -0.0306911 -2.49976 8.29684 16.525 6.29704 8.92427 21.9162 7.68207 -0.0 0.0 -0.0 7.45435 18.0244 13.6349 -11.3933 -31.6483 67.9461 0.870225 -23.3199 0.179584 13.6074 0.277292 -1.71203 1.8814 1.67669 13.3373 -0.0 0.0 -0.0 2.60339 23.114 -2.95828 -5.00152 25.5573 -65.0782 0.886938 23.7186 -0.186253 5.0318 -0.149913 0.625041 -1.21847 -4.52697 6.13221 0.0 0.0 0.0 1.97732 17.9061 2.8169 -7.26094 0.230145 1.08983 36.2565 4.93949 -4.51897 -7.66102 0.0 0.0 -0.0 0.0 -0.0 6.9124 10.3313 0.789354 -1.61597 -0.063156 -0.239944 -0.859783 0.594474 -0.127662 34.3108 -0.0 -0.0 0.0 0.0 0.0 
422.818761734 713.894 -1188.82417192 -179.731504703 -35.9064030046 -175.243329624 -1.81259 -0.399612 -2.46782 -1.80923 -0.241818 -2.48823 -1.79526 0.364362 -2.47327 -1.80379 -0.0306911 -2.49976 8.29684 16.525 6.29704 8.92427 21.9162 7.68207 -0.0 0.0 -0.0 7.45435 18.0244 13.6349 -11.3933 -31.6483 67.9461 0.870225 -23.3199 0.179584 13.6074 0.277292 -1.71203 1.8814 1.67669 13.3373 -0.0 0.0 -0.0 2.60339 23.114 -2.95828 -5.00152 25.5573 -65.0782 0.886938 23.7186 -0.186253 5.0318 -0.149913 0.625041 -1.21847 -4.52697 6.13221 0.0 0.0 0.0 1.97732 17.9061 2.8169 -7.26094 0.230145 1.08983 36.2565 4.93949 -4.51897 -7.66102 0.0 0.0 -0.0 0.0 -0.0 6.9124 10.3313 0.789354 -1.61597 -0.063156 -0.239944 -0.859783 0.594474 -0.127662 34.3108 -0.0 -0.0 0.0 0.0 0.0 
423.302450272 713.894 -1189.83190497 -179.724996828 -37.7388794183 -175.23247261 -1.81259 -0.399612 -2.46782 -1.80923 -0.241818 -2.48823 -1.79526 0.364362 -2.47327 -1.80379 -0.0306911 -2.49976 8.29684 16.525 6.29704 8.92427 21.9162 7.68207 -0.0 0.0 -0.0 7.45435 18.0244 13.6349 -11.3933 -31.6483 67.9461 0.870225 -23.3199 0.179584 13.6074 0.277292 -1.71203 1.8814 1.67669 13.3373 -0.0 0.0 -0.0 2.60339 23.114 -2.95828 -5.00152 25.5573 -65.0782 0.886938 23.7186 -0.186253 5.0318 -0.149913 0.625041 -1.21847 -4.52697 6.13221 0.0 0.0 0.0 1.97732 17.9061 2.8169 -7.26094 0.230145 1.08983 36.2565 4.93949 -4.51897 -7.66102 0.0 0.0 -0.0 0.0 -0.0 6.9124 10.3313 0.789354 -1.61597 -0.063156 -0.239944 -0.859783 0.594474 -0.127662 34.3108 -0.0 -0.0 0.0 0.0 0.0 
423.705425867 713.894 -1190.74090019 -179.718689628 -39.3689011447 -175.222353786 -1.81259 -0.399612 -2.46782 -1.80923 -0.241818 -2.48823 -1.79526 0.364362 -2.47327 -1.80379 -0.0306911 -2.49976 8.29684 16.525 6.29704 8.92427 21.9162 7.68207 -0.0 0.0 -0.0 7.45435 18.0244 13.6349 -11.3933 -31.6483 67.9461 0.870225 -23.3199 0.179584 13.6074 0.277292 -1.71203 1.8814 1.67669 13.3373 -0.0 0.0 -0.0 2.60339 23.114 -2.95828 -5.00152 25.5573 -65.0782 0.886938 23.7186 -0.186253 5.0318 -0.149913 0.625041 -1.21847 -4.52697 6.13221 0.0 0.0 0.0 1.97732 17.9061 2.8169 -7.26094 0.230145 1.08983 36.2565 4.93949 -4.51897 -7.66102 0.0 0.0 -0.0 0.0 -0.0 6.9124 10.3313 0.789354 -1.61597 -0.063156 -0.239944 -0.859783 0.594474 -0.127662 34.3108 -0.0 -0.0 0.0 0.0 0.0 
